<svg id="eKPkWNBSRg81" xmlns="http://www.w3.org/2000/svg" xmlns:xlink="http://www.w3.org/1999/xlink" viewBox="0 0 48 48" shape-rendering="geometricPrecision" text-rendering="geometricPrecision"><path d="M43,43h-38c-2.209139,0-4-1.790861-4-4L1,9C1,6.790861,2.790861,5,5,5h38c2.209139,0,4,1.790861,4,4v30c0,2.209139-1.790861,4-4,4ZM41,7h4c-4,0-.895431,0-2,0L3,7C6,7,7,7,3,7m42,7h-42v25c0,1.104569.895431,2,2,2h38c1.104569,0,2-.895431,2-2v-25ZM41,31h-2c-.552285,0-1-.447715-1-1v-2c0-.552285.447715-1,1-1h2c.552285,0,1,.447715,1,1v2c0,.552285-.447715,1-1,1Zm0-7h-2c-.552285,0-1-.447715-1-1v-2c0-.552285.447715-1,1-1h2c.552285,0,1,.447715,1,1v2c0,.552285-.447715,1-1,1Zm-8,7h-2c-.552285,0-1-.447715-1-1v-2c0-.552285.447715-1,1-1h2c.552285,0,1,.447715,1,1v2c0,.552285-.447715,1-1,1Zm0-7h-2c-.552285,0-1-.447715-1-1v-2c0-.552285.447715-1,1-1h2c.552285,0,1,.447715,1,1v2c0,.552285-.447715,1-1,1Zm-8,7h-2c-.552285,0-1-.447715-1-1v-2c0-.552285.447715-1,1-1h2c.552285,0,1,.447715,1,1v2c0,.552285-.447715,1-1,1Zm0-7h-2c-.552285,0-1-.447715-1-1v-2c0-.552285.447715-1,1-1h2c.552285,0,1,.447715,1,1v2c0,.552285-.447715,1-1,1ZM17,38h-2c-.552285,0-1-.447715-1-1v-2c0-.552285.447715-1,1-1h2c.552285,0,1,.447715,1,1v2c0,.552285-.447715,1-1,1Zm0-7h-2c-.552285,0-1-.447715-1-1v-2c0-.552285.447715-1,1-1h2c.552285,0,1,.447715,1,1v2c0,.552285-.447715,1-1,1Zm0-7h-2c-.552285,0-1-.447715-1-1v-2c0-.552285.447715-1,1-1h2c.552285,0,1,.447715,1,1v2c0,.552285-.447715,1-1,1ZM9,38h-2c-.552285,0-1-.447715-1-1v-2c0-.552285.447715-1,1-1h2c.552285,0,1,.447715,1,1v2c0,.552285-.447715,1-1,1Zm0-7h-2c-.552285,0-1-.447715-1-1v-2c0-.552285.447715-1,1-1h2c.552285,0,1,.447715,1,1v2c0,.552285-.447715,1-1,1Zm14,3h2c.552285,0,1,.447715,1,1v2c0,.552285-.447715,1-1,1h-2c-.552285,0-1-.447715-1-1v-2c0-.552285.447715-1,1-1Z" transform="translate(.114449 0)" clip-rule="evenodd" fill="rgba(255, 255, 255, 0.5)" fill-rule="evenodd" stroke-linejoin="round"/></svg>
